# Blender v3.1.2 OBJ File: ''
# www.blender.org
mtllib hippie_saw_back.mtl
o Round_corridor_cyberpunk_Traps_v1
v 0.065286 0.021900 -0.087683
v 0.068662 0.000585 -0.087683
v 0.082499 0.000585 -0.087683
v 0.078446 0.026176 -0.087683
v 0.065286 -0.020729 -0.087683
v 0.078446 -0.025005 -0.087683
v 0.055489 -0.039957 -0.087683
v 0.066684 -0.048091 -0.087683
v 0.040229 -0.055217 -0.087683
v 0.048363 -0.066412 -0.087683
v 0.021001 -0.065014 -0.087683
v 0.025277 -0.078174 -0.087683
v -0.000313 -0.068390 -0.087683
v -0.000313 -0.082228 -0.087683
v -0.021628 -0.065014 -0.087683
v -0.025904 -0.078175 -0.087683
v -0.040856 -0.055217 -0.087683
v -0.048990 -0.066412 -0.087683
v -0.056116 -0.039958 -0.087683
v -0.067310 -0.048091 -0.087683
v -0.065913 -0.020729 -0.087683
v -0.079073 -0.025005 -0.087683
v -0.069289 0.000585 -0.087683
v -0.083126 0.000585 -0.087683
v -0.065913 0.021900 -0.087683
v -0.079073 0.026176 -0.087683
v -0.056116 0.041128 -0.087683
v -0.067310 0.049261 -0.087683
v -0.040856 0.056388 -0.087683
v -0.048989 0.067582 -0.087683
v -0.021628 0.066185 -0.087683
v -0.025904 0.079345 -0.087683
v -0.000313 0.069561 -0.087683
v -0.000313 0.083398 -0.087683
v 0.021001 0.066185 -0.087683
v 0.025277 0.079345 -0.087683
v 0.040229 0.056388 -0.087683
v 0.048363 0.067582 -0.087683
v 0.055489 0.041128 -0.087683
v 0.066684 0.049261 -0.087683
v 0.065286 0.021900 -0.090437
v 0.068662 0.000585 -0.090437
v 0.055489 0.041128 -0.090437
v 0.040229 0.056388 -0.090437
v 0.021001 0.066185 -0.090437
v -0.000313 0.069561 -0.090437
v -0.021628 0.066185 -0.090437
v -0.040856 0.056388 -0.090437
v -0.056116 0.041128 -0.090437
v -0.065913 0.021900 -0.090437
v -0.069289 0.000585 -0.090437
v -0.065913 -0.020729 -0.090437
v -0.056116 -0.039958 -0.090437
v -0.040856 -0.055217 -0.090437
v -0.021628 -0.065014 -0.090437
v -0.000313 -0.068390 -0.090437
v 0.021001 -0.065014 -0.090437
v 0.040229 -0.055217 -0.090437
v 0.055489 -0.039957 -0.090437
v 0.065286 -0.020729 -0.090437
vt 0.181548 0.594468
vt 0.165592 0.494116
vt 0.101287 0.494117
vt 0.120065 0.613282
vt 0.181547 0.393765
vt 0.120065 0.374949
vt 0.224876 0.301655
vt 0.171166 0.266275
vt 0.292399 0.225509
vt 0.250841 0.176414
vt 0.378654 0.171550
vt 0.352618 0.112647
vt 0.475991 0.144357
vt 0.468583 0.080561
vt 0.286862 0.060028
vt 0.214875 0.131452
vt 0.166304 0.089664
vt 0.249991 0.007425
vt 0.155361 0.215173
vt 0.099867 0.183044
vt 0.112466 0.308417
vt 0.051951 0.287177
vt 0.087682 0.408013
vt 0.024270 0.398415
vt 0.081881 0.510482
vt 0.017791 0.512862
vt 0.095266 0.612239
vt 0.032743 0.626515
vt 0.127374 0.709737
vt 0.068594 0.735392
vt 0.177340 0.799438
vt 0.123726 0.835874
vt 0.238807 0.880710
vt 0.196378 0.927870
vt 0.322876 0.935938
vt 0.296300 0.994147
vt 0.475977 0.843901
vt 0.378642 0.816697
vt 0.352600 0.875598
vt 0.468563 0.907696
vt 0.292393 0.762730
vt 0.250832 0.811822
vt 0.224875 0.686579
vt 0.171163 0.721956
vt 0.193623 0.590842
vt 0.178169 0.494116
vt 0.235416 0.679638
vt 0.300551 0.753093
vt 0.383870 0.805118
vt 0.479597 0.831742
vt 0.246659 0.871836
vt 0.329951 0.925447
vt 0.188524 0.791687
vt 0.139123 0.704556
vt 0.107785 0.609379
vt 0.094715 0.510005
vt 0.100380 0.409935
vt 0.124584 0.312670
vt 0.166462 0.221612
vt 0.224422 0.140013
vt 0.295370 0.069564
vt 0.383880 0.183130
vt 0.479610 0.156516
vt 0.300556 0.235146
vt 0.235417 0.308596
vt 0.193622 0.397391
vn -0.0000 -0.0000 1.0000
vn -0.9877 -0.1564 0.0000
vn -0.8910 -0.4540 0.0000
vn -0.7071 -0.7071 0.0000
vn -0.4540 -0.8910 0.0000
vn -0.1564 -0.9877 0.0000
vn 0.1564 -0.9877 0.0000
vn 0.4540 -0.8910 0.0000
vn 0.7071 -0.7071 0.0000
vn 0.8910 -0.4540 0.0000
vn 0.9877 -0.1564 0.0000
vn 0.9877 0.1564 0.0000
vn 0.8910 0.4540 0.0000
vn 0.7071 0.7071 0.0000
vn 0.4540 0.8910 0.0000
vn 0.1564 0.9877 0.0000
vn -0.1564 0.9877 0.0000
vn -0.4540 0.8910 0.0000
vn -0.7071 0.7071 0.0000
vn -0.8910 0.4540 0.0000
vn -0.9877 0.1564 0.0000
usemtl Round_corridor_cyberpunk_Traps_v1_mat
s 1
f 1/1/1 2/2/1 3/3/1 4/4/1
f 2/2/1 5/5/1 6/6/1 3/3/1
f 5/5/1 7/7/1 8/8/1 6/6/1
f 7/7/1 9/9/1 10/10/1 8/8/1
f 9/9/1 11/11/1 12/12/1 10/10/1
f 11/11/1 13/13/1 14/14/1 12/12/1
f 13/15/1 15/16/1 16/17/1 14/18/1
f 15/16/1 17/19/1 18/20/1 16/17/1
f 17/19/1 19/21/1 20/22/1 18/20/1
f 19/21/1 21/23/1 22/24/1 20/22/1
f 21/23/1 23/25/1 24/26/1 22/24/1
f 23/25/1 25/27/1 26/28/1 24/26/1
f 25/27/1 27/29/1 28/30/1 26/28/1
f 27/29/1 29/31/1 30/32/1 28/30/1
f 29/31/1 31/33/1 32/34/1 30/32/1
f 31/33/1 33/35/1 34/36/1 32/34/1
f 33/37/1 35/38/1 36/39/1 34/40/1
f 35/38/1 37/41/1 38/42/1 36/39/1
f 37/41/1 39/43/1 40/44/1 38/42/1
f 39/43/1 1/1/1 4/4/1 40/44/1
f 2/2/2 1/1/2 41/45/2 42/46/2
f 1/1/3 39/43/3 43/47/3 41/45/3
f 39/43/4 37/41/4 44/48/4 43/47/4
f 37/41/5 35/38/5 45/49/5 44/48/5
f 35/38/6 33/37/6 46/50/6 45/49/6
f 33/35/7 31/33/7 47/51/7 46/52/7
f 31/33/8 29/31/8 48/53/8 47/51/8
f 29/31/9 27/29/9 49/54/9 48/53/9
f 27/29/10 25/27/10 50/55/10 49/54/10
f 25/27/11 23/25/11 51/56/11 50/55/11
f 23/25/12 21/23/12 52/57/12 51/56/12
f 21/23/13 19/21/13 53/58/13 52/57/13
f 19/21/14 17/19/14 54/59/14 53/58/14
f 17/19/15 15/16/15 55/60/15 54/59/15
f 15/16/16 13/15/16 56/61/16 55/60/16
f 13/13/17 11/11/17 57/62/17 56/63/17
f 11/11/18 9/9/18 58/64/18 57/62/18
f 9/9/19 7/7/19 59/65/19 58/64/19
f 7/7/20 5/5/20 60/66/20 59/65/20
f 5/5/21 2/2/21 42/46/21 60/66/21
